<?xml version="1.0" standalone="no"?>
<!DOCTYPE svg PUBLIC "-//W3C//DTD SVG 20010904//EN"
 "http://www.w3.org/TR/2001/REC-SVG-20010904/DTD/svg10.dtd">
<svg version="1.0" xmlns="http://www.w3.org/2000/svg"
 width="700.000000pt" height="700.000000pt" viewBox="0 0 700.000000 700.000000"
 preserveAspectRatio="xMidYMid meet">
<metadata>
Created by potrace 1.14, written by Peter Selinger 2001-2017
</metadata>
<g transform="translate(0.000000,700.000000) scale(0.100000,-0.100000)"
fill="#000000" stroke="none">
<path d="M3352 6980 c-111 -29 -187 -75 -278 -165 -66 -66 -89 -98 -123 -167
-22 -48 -41 -94 -41 -102 0 -19 -13 -27 -53 -33 -18 -2 -59 -11 -92 -20 -33
-8 -68 -16 -77 -18 -38 -8 -173 -48 -251 -75 -484 -168 -894 -425 -1257 -790
-189 -189 -419 -482 -398 -507 6 -7 14 -13 19 -13 5 0 26 -11 47 -23 20 -13
57 -35 82 -49 25 -14 159 -91 298 -172 l253 -147 19 23 c11 13 19 26 20 30 0
4 6 13 13 20 6 7 39 47 72 87 204 254 484 475 803 636 91 46 252 115 267 115
3 0 5 -244 5 -542 l0 -543 820 -1 820 -1 0 166 c0 91 0 336 0 544 0 207 2 377
4 377 2 0 53 -20 112 -45 202 -85 390 -193 566 -327 118 -89 352 -325 441
-445 l75 -102 354 206 c194 112 355 207 357 209 4 4 -120 193 -143 217 -6 7
-38 46 -71 87 -88 110 -314 333 -440 434 -383 305 -821 522 -1284 636 -64 15
-132 31 -152 34 -34 6 -38 11 -63 76 -59 148 -162 268 -296 339 -132 70 -286
89 -428 51z"/>
<path d="M526 4670 c-122 -265 -220 -579 -261 -835 -2 -16 -7 -46 -10 -65 -24
-152 -30 -242 -30 -480 0 -129 4 -266 8 -305 5 -38 10 -86 12 -105 2 -30 13
-94 29 -182 18 -92 30 -145 52 -228 14 -52 27 -99 28 -105 1 -5 14 -47 30 -92
l27 -81 -34 -49 c-80 -112 -120 -232 -120 -363 1 -269 164 -498 418 -586 69
-24 96 -28 203 -29 l122 0 78 -85 c396 -432 852 -733 1387 -917 221 -76 525
-140 751 -159 l81 -6 -1 423 -1 424 -50 6 c-27 4 -75 10 -105 14 -275 34 -636
164 -899 323 -79 47 -243 162 -299 209 l-32 28 132 76 c143 83 439 253 661
381 75 44 137 83 137 87 0 4 -87 157 -193 341 -107 184 -286 495 -399 690
-112 195 -209 363 -214 372 -9 16 -17 13 -84 -25 -41 -24 -252 -146 -469 -271
-216 -125 -395 -225 -397 -223 -6 5 -22 101 -32 187 -15 135 -7 508 13 605 3
11 7 38 10 60 3 22 7 47 10 55 2 8 6 26 9 40 19 111 95 346 151 467 l33 72
-26 18 c-15 9 -40 25 -57 33 -16 9 -97 56 -180 104 -82 49 -168 98 -190 111
-22 12 -87 50 -145 84 -58 33 -108 61 -111 61 -3 0 -23 -36 -43 -80z"/>
<path d="M6390 4728 c-19 -12 -60 -36 -90 -53 -30 -18 -125 -72 -210 -122 -85
-49 -200 -116 -255 -147 -55 -32 -103 -61 -107 -65 -4 -3 -1 -19 7 -34 20 -39
84 -201 107 -272 50 -156 87 -332 107 -520 9 -79 7 -412 -3 -470 -2 -16 -10
-67 -17 -112 -6 -46 -12 -83 -14 -83 -1 0 -212 122 -469 271 -258 148 -470
269 -471 267 -4 -4 -143 -246 -342 -593 -89 -154 -170 -296 -181 -315 -12 -19
-27 -46 -35 -60 -7 -14 -69 -121 -136 -238 -68 -118 -121 -215 -119 -217 5 -5
294 -173 358 -208 30 -17 84 -48 119 -69 34 -21 64 -38 66 -38 2 0 47 -26 102
-58 54 -32 105 -62 113 -66 8 -4 24 -12 35 -19 11 -7 46 -27 78 -45 47 -28 56
-37 46 -48 -20 -24 -219 -168 -301 -217 -236 -142 -487 -244 -743 -301 -107
-24 -137 -29 -240 -41 -102 -12 -90 42 -89 -427 1 -227 2 -417 3 -421 0 -5 29
-6 64 -2 34 3 82 8 107 11 25 3 57 7 71 9 14 3 41 7 60 9 81 11 248 47 352 77
130 36 308 98 321 110 6 5 16 9 23 9 22 0 266 116 368 175 22 13 54 31 70 39
74 39 269 175 390 271 128 103 299 266 434 417 35 39 46 46 64 39 37 -13 189
-5 257 14 235 65 412 261 448 495 24 164 -18 340 -113 464 l-34 45 39 123 c72
223 127 504 145 753 6 73 6 418 0 460 -2 17 -6 59 -9 95 -3 36 -8 76 -10 90
-2 14 -7 48 -11 75 -21 158 -86 420 -150 595 -57 161 -150 370 -163 370 -4 0
-23 -10 -42 -22z"/>
</g>
</svg>
